<mxfile host="app.diagrams.net" modified="2023-12-12T04:25:44.766Z" agent="Mozilla/5.0 (Windows NT 10.0; Win64; x64) AppleWebKit/537.36 (KHTML, like Gecko) Chrome/120.0.0.0 Safari/537.36" version="22.1.7" etag="EvJMBvrxBn7EIDWsqmRP" type="github">
  <diagram name="Page-1" id="_U-Idu24aPr_U_M59kwv">
    <mxGraphModel>
      <root>
        <mxCell id="0" />
        <mxCell id="1" parent="0" />
      </root>
    </mxGraphModel>
  </diagram>
</mxfile>
